<?xml version="1.0" encoding="utf-8" standalone="no"?>
<!DOCTYPE svg PUBLIC "-//W3C//DTD SVG 1.1//EN"
  "http://www.w3.org/Graphics/SVG/1.1/DTD/svg11.dtd">
<!-- Created with matplotlib (http://matplotlib.org/) -->
<svg height="793.44pt" version="1.1" viewBox="0 0 1382.4 793.44" width="1382.4pt" xmlns="http://www.w3.org/2000/svg" xmlns:xlink="http://www.w3.org/1999/xlink">
 <defs>
  <style type="text/css">
*{stroke-linecap:butt;stroke-linejoin:round;}
  </style>
 </defs>
 <g id="figure_1">
  <g id="patch_1">
   <path d="M 0 793.44 
L 1382.4 793.44 
L 1382.4 0 
L 0 0 
z
" style="fill:#ffffff;"/>
  </g>
  <g id="axes_1">
   <g id="patch_2">
    <path d="M 172.8 706.1616 
L 659.781818 706.1616 
L 659.781818 95.2128 
L 172.8 95.2128 
z
" style="fill:#ffffff;"/>
   </g>
   <g id="matplotlib.axis_1">
    <g id="xtick_1">
     <g id="line2d_1">
      <path clip-path="url(#pcba5afc950)" d="M 177.574332 706.1616 
L 177.574332 95.2128 
" style="fill:none;stroke:#b0b0b0;stroke-linecap:square;stroke-width:0.8;"/>
     </g>
     <g id="line2d_2">
      <defs>
       <path d="M 0 0 
L 0 3.5 
" id="mde8738ef0d" style="stroke:#000000;stroke-width:0.8;"/>
      </defs>
      <g>
       <use style="stroke:#000000;stroke-width:0.8;" x="177.574332" xlink:href="#mde8738ef0d" y="706.1616"/>
      </g>
     </g>
     <g id="text_1">
      <!-- 0 -->
      <defs>
       <path d="M 31.78125 66.40625 
Q 24.171875 66.40625 20.328125 58.90625 
Q 16.5 51.421875 16.5 36.375 
Q 16.5 21.390625 20.328125 13.890625 
Q 24.171875 6.390625 31.78125 6.390625 
Q 39.453125 6.390625 43.28125 13.890625 
Q 47.125 21.390625 47.125 36.375 
Q 47.125 51.421875 43.28125 58.90625 
Q 39.453125 66.40625 31.78125 66.40625 
z
M 31.78125 74.21875 
Q 44.046875 74.21875 50.515625 64.515625 
Q 56.984375 54.828125 56.984375 36.375 
Q 56.984375 17.96875 50.515625 8.265625 
Q 44.046875 -1.421875 31.78125 -1.421875 
Q 19.53125 -1.421875 13.0625 8.265625 
Q 6.59375 17.96875 6.59375 36.375 
Q 6.59375 54.828125 13.0625 64.515625 
Q 19.53125 74.21875 31.78125 74.21875 
z
" id="DejaVuSans-30"/>
      </defs>
      <g transform="translate(174.393082 720.760037)scale(0.1 -0.1)">
       <use xlink:href="#DejaVuSans-30"/>
      </g>
     </g>
    </g>
    <g id="xtick_2">
     <g id="line2d_3">
      <path clip-path="url(#pcba5afc950)" d="M 231.828099 706.1616 
L 231.828099 95.2128 
" style="fill:none;stroke:#b0b0b0;stroke-linecap:square;stroke-width:0.8;"/>
     </g>
     <g id="line2d_4">
      <g>
       <use style="stroke:#000000;stroke-width:0.8;" x="231.828099" xlink:href="#mde8738ef0d" y="706.1616"/>
      </g>
     </g>
     <g id="text_2">
      <!-- 250 -->
      <defs>
       <path d="M 19.1875 8.296875 
L 53.609375 8.296875 
L 53.609375 0 
L 7.328125 0 
L 7.328125 8.296875 
Q 12.9375 14.109375 22.625 23.890625 
Q 32.328125 33.6875 34.8125 36.53125 
Q 39.546875 41.84375 41.421875 45.53125 
Q 43.3125 49.21875 43.3125 52.78125 
Q 43.3125 58.59375 39.234375 62.25 
Q 35.15625 65.921875 28.609375 65.921875 
Q 23.96875 65.921875 18.8125 64.3125 
Q 13.671875 62.703125 7.8125 59.421875 
L 7.8125 69.390625 
Q 13.765625 71.78125 18.9375 73 
Q 24.125 74.21875 28.421875 74.21875 
Q 39.75 74.21875 46.484375 68.546875 
Q 53.21875 62.890625 53.21875 53.421875 
Q 53.21875 48.921875 51.53125 44.890625 
Q 49.859375 40.875 45.40625 35.40625 
Q 44.1875 33.984375 37.640625 27.21875 
Q 31.109375 20.453125 19.1875 8.296875 
z
" id="DejaVuSans-32"/>
       <path d="M 10.796875 72.90625 
L 49.515625 72.90625 
L 49.515625 64.59375 
L 19.828125 64.59375 
L 19.828125 46.734375 
Q 21.96875 47.46875 24.109375 47.828125 
Q 26.265625 48.1875 28.421875 48.1875 
Q 40.625 48.1875 47.75 41.5 
Q 54.890625 34.8125 54.890625 23.390625 
Q 54.890625 11.625 47.5625 5.09375 
Q 40.234375 -1.421875 26.90625 -1.421875 
Q 22.3125 -1.421875 17.546875 -0.640625 
Q 12.796875 0.140625 7.71875 1.703125 
L 7.71875 11.625 
Q 12.109375 9.234375 16.796875 8.0625 
Q 21.484375 6.890625 26.703125 6.890625 
Q 35.15625 6.890625 40.078125 11.328125 
Q 45.015625 15.765625 45.015625 23.390625 
Q 45.015625 31 40.078125 35.4375 
Q 35.15625 39.890625 26.703125 39.890625 
Q 22.75 39.890625 18.8125 39.015625 
Q 14.890625 38.140625 10.796875 36.28125 
z
" id="DejaVuSans-35"/>
      </defs>
      <g transform="translate(222.284349 720.760037)scale(0.1 -0.1)">
       <use xlink:href="#DejaVuSans-32"/>
       <use x="63.623047" xlink:href="#DejaVuSans-35"/>
       <use x="127.246094" xlink:href="#DejaVuSans-30"/>
      </g>
     </g>
    </g>
    <g id="xtick_3">
     <g id="line2d_5">
      <path clip-path="url(#pcba5afc950)" d="M 286.081867 706.1616 
L 286.081867 95.2128 
" style="fill:none;stroke:#b0b0b0;stroke-linecap:square;stroke-width:0.8;"/>
     </g>
     <g id="line2d_6">
      <g>
       <use style="stroke:#000000;stroke-width:0.8;" x="286.081867" xlink:href="#mde8738ef0d" y="706.1616"/>
      </g>
     </g>
     <g id="text_3">
      <!-- 500 -->
      <g transform="translate(276.538117 720.760037)scale(0.1 -0.1)">
       <use xlink:href="#DejaVuSans-35"/>
       <use x="63.623047" xlink:href="#DejaVuSans-30"/>
       <use x="127.246094" xlink:href="#DejaVuSans-30"/>
      </g>
     </g>
    </g>
    <g id="xtick_4">
     <g id="line2d_7">
      <path clip-path="url(#pcba5afc950)" d="M 340.335634 706.1616 
L 340.335634 95.2128 
" style="fill:none;stroke:#b0b0b0;stroke-linecap:square;stroke-width:0.8;"/>
     </g>
     <g id="line2d_8">
      <g>
       <use style="stroke:#000000;stroke-width:0.8;" x="340.335634" xlink:href="#mde8738ef0d" y="706.1616"/>
      </g>
     </g>
     <g id="text_4">
      <!-- 750 -->
      <defs>
       <path d="M 8.203125 72.90625 
L 55.078125 72.90625 
L 55.078125 68.703125 
L 28.609375 0 
L 18.3125 0 
L 43.21875 64.59375 
L 8.203125 64.59375 
z
" id="DejaVuSans-37"/>
      </defs>
      <g transform="translate(330.791884 720.760037)scale(0.1 -0.1)">
       <use xlink:href="#DejaVuSans-37"/>
       <use x="63.623047" xlink:href="#DejaVuSans-35"/>
       <use x="127.246094" xlink:href="#DejaVuSans-30"/>
      </g>
     </g>
    </g>
    <g id="xtick_5">
     <g id="line2d_9">
      <path clip-path="url(#pcba5afc950)" d="M 394.589402 706.1616 
L 394.589402 95.2128 
" style="fill:none;stroke:#b0b0b0;stroke-linecap:square;stroke-width:0.8;"/>
     </g>
     <g id="line2d_10">
      <g>
       <use style="stroke:#000000;stroke-width:0.8;" x="394.589402" xlink:href="#mde8738ef0d" y="706.1616"/>
      </g>
     </g>
     <g id="text_5">
      <!-- 1000 -->
      <defs>
       <path d="M 12.40625 8.296875 
L 28.515625 8.296875 
L 28.515625 63.921875 
L 10.984375 60.40625 
L 10.984375 69.390625 
L 28.421875 72.90625 
L 38.28125 72.90625 
L 38.28125 8.296875 
L 54.390625 8.296875 
L 54.390625 0 
L 12.40625 0 
z
" id="DejaVuSans-31"/>
      </defs>
      <g transform="translate(381.864402 720.760037)scale(0.1 -0.1)">
       <use xlink:href="#DejaVuSans-31"/>
       <use x="63.623047" xlink:href="#DejaVuSans-30"/>
       <use x="127.246094" xlink:href="#DejaVuSans-30"/>
       <use x="190.869141" xlink:href="#DejaVuSans-30"/>
      </g>
     </g>
    </g>
    <g id="xtick_6">
     <g id="line2d_11">
      <path clip-path="url(#pcba5afc950)" d="M 448.84317 706.1616 
L 448.84317 95.2128 
" style="fill:none;stroke:#b0b0b0;stroke-linecap:square;stroke-width:0.8;"/>
     </g>
     <g id="line2d_12">
      <g>
       <use style="stroke:#000000;stroke-width:0.8;" x="448.84317" xlink:href="#mde8738ef0d" y="706.1616"/>
      </g>
     </g>
     <g id="text_6">
      <!-- 1250 -->
      <g transform="translate(436.11817 720.760037)scale(0.1 -0.1)">
       <use xlink:href="#DejaVuSans-31"/>
       <use x="63.623047" xlink:href="#DejaVuSans-32"/>
       <use x="127.246094" xlink:href="#DejaVuSans-35"/>
       <use x="190.869141" xlink:href="#DejaVuSans-30"/>
      </g>
     </g>
    </g>
    <g id="xtick_7">
     <g id="line2d_13">
      <path clip-path="url(#pcba5afc950)" d="M 503.096937 706.1616 
L 503.096937 95.2128 
" style="fill:none;stroke:#b0b0b0;stroke-linecap:square;stroke-width:0.8;"/>
     </g>
     <g id="line2d_14">
      <g>
       <use style="stroke:#000000;stroke-width:0.8;" x="503.096937" xlink:href="#mde8738ef0d" y="706.1616"/>
      </g>
     </g>
     <g id="text_7">
      <!-- 1500 -->
      <g transform="translate(490.371937 720.760037)scale(0.1 -0.1)">
       <use xlink:href="#DejaVuSans-31"/>
       <use x="63.623047" xlink:href="#DejaVuSans-35"/>
       <use x="127.246094" xlink:href="#DejaVuSans-30"/>
       <use x="190.869141" xlink:href="#DejaVuSans-30"/>
      </g>
     </g>
    </g>
    <g id="xtick_8">
     <g id="line2d_15">
      <path clip-path="url(#pcba5afc950)" d="M 557.350705 706.1616 
L 557.350705 95.2128 
" style="fill:none;stroke:#b0b0b0;stroke-linecap:square;stroke-width:0.8;"/>
     </g>
     <g id="line2d_16">
      <g>
       <use style="stroke:#000000;stroke-width:0.8;" x="557.350705" xlink:href="#mde8738ef0d" y="706.1616"/>
      </g>
     </g>
     <g id="text_8">
      <!-- 1750 -->
      <g transform="translate(544.625705 720.760037)scale(0.1 -0.1)">
       <use xlink:href="#DejaVuSans-31"/>
       <use x="63.623047" xlink:href="#DejaVuSans-37"/>
       <use x="127.246094" xlink:href="#DejaVuSans-35"/>
       <use x="190.869141" xlink:href="#DejaVuSans-30"/>
      </g>
     </g>
    </g>
    <g id="xtick_9">
     <g id="line2d_17">
      <path clip-path="url(#pcba5afc950)" d="M 611.604473 706.1616 
L 611.604473 95.2128 
" style="fill:none;stroke:#b0b0b0;stroke-linecap:square;stroke-width:0.8;"/>
     </g>
     <g id="line2d_18">
      <g>
       <use style="stroke:#000000;stroke-width:0.8;" x="611.604473" xlink:href="#mde8738ef0d" y="706.1616"/>
      </g>
     </g>
     <g id="text_9">
      <!-- 2000 -->
      <g transform="translate(598.879473 720.760037)scale(0.1 -0.1)">
       <use xlink:href="#DejaVuSans-32"/>
       <use x="63.623047" xlink:href="#DejaVuSans-30"/>
       <use x="127.246094" xlink:href="#DejaVuSans-30"/>
       <use x="190.869141" xlink:href="#DejaVuSans-30"/>
      </g>
     </g>
    </g>
    <g id="text_10">
     <!-- Pressure[Pa] -->
     <defs>
      <path d="M 19.671875 64.796875 
L 19.671875 37.40625 
L 32.078125 37.40625 
Q 38.96875 37.40625 42.71875 40.96875 
Q 46.484375 44.53125 46.484375 51.125 
Q 46.484375 57.671875 42.71875 61.234375 
Q 38.96875 64.796875 32.078125 64.796875 
z
M 9.8125 72.90625 
L 32.078125 72.90625 
Q 44.34375 72.90625 50.609375 67.359375 
Q 56.890625 61.8125 56.890625 51.125 
Q 56.890625 40.328125 50.609375 34.8125 
Q 44.34375 29.296875 32.078125 29.296875 
L 19.671875 29.296875 
L 19.671875 0 
L 9.8125 0 
z
" id="DejaVuSans-50"/>
      <path d="M 41.109375 46.296875 
Q 39.59375 47.171875 37.8125 47.578125 
Q 36.03125 48 33.890625 48 
Q 26.265625 48 22.1875 43.046875 
Q 18.109375 38.09375 18.109375 28.8125 
L 18.109375 0 
L 9.078125 0 
L 9.078125 54.6875 
L 18.109375 54.6875 
L 18.109375 46.1875 
Q 20.953125 51.171875 25.484375 53.578125 
Q 30.03125 56 36.53125 56 
Q 37.453125 56 38.578125 55.875 
Q 39.703125 55.765625 41.0625 55.515625 
z
" id="DejaVuSans-72"/>
      <path d="M 56.203125 29.59375 
L 56.203125 25.203125 
L 14.890625 25.203125 
Q 15.484375 15.921875 20.484375 11.0625 
Q 25.484375 6.203125 34.421875 6.203125 
Q 39.59375 6.203125 44.453125 7.46875 
Q 49.3125 8.734375 54.109375 11.28125 
L 54.109375 2.78125 
Q 49.265625 0.734375 44.1875 -0.34375 
Q 39.109375 -1.421875 33.890625 -1.421875 
Q 20.796875 -1.421875 13.15625 6.1875 
Q 5.515625 13.8125 5.515625 26.8125 
Q 5.515625 40.234375 12.765625 48.109375 
Q 20.015625 56 32.328125 56 
Q 43.359375 56 49.78125 48.890625 
Q 56.203125 41.796875 56.203125 29.59375 
z
M 47.21875 32.234375 
Q 47.125 39.59375 43.09375 43.984375 
Q 39.0625 48.390625 32.421875 48.390625 
Q 24.90625 48.390625 20.390625 44.140625 
Q 15.875 39.890625 15.1875 32.171875 
z
" id="DejaVuSans-65"/>
      <path d="M 44.28125 53.078125 
L 44.28125 44.578125 
Q 40.484375 46.53125 36.375 47.5 
Q 32.28125 48.484375 27.875 48.484375 
Q 21.1875 48.484375 17.84375 46.4375 
Q 14.5 44.390625 14.5 40.28125 
Q 14.5 37.15625 16.890625 35.375 
Q 19.28125 33.59375 26.515625 31.984375 
L 29.59375 31.296875 
Q 39.15625 29.25 43.1875 25.515625 
Q 47.21875 21.78125 47.21875 15.09375 
Q 47.21875 7.46875 41.1875 3.015625 
Q 35.15625 -1.421875 24.609375 -1.421875 
Q 20.21875 -1.421875 15.453125 -0.5625 
Q 10.6875 0.296875 5.421875 2 
L 5.421875 11.28125 
Q 10.40625 8.6875 15.234375 7.390625 
Q 20.0625 6.109375 24.8125 6.109375 
Q 31.15625 6.109375 34.5625 8.28125 
Q 37.984375 10.453125 37.984375 14.40625 
Q 37.984375 18.0625 35.515625 20.015625 
Q 33.0625 21.96875 24.703125 23.78125 
L 21.578125 24.515625 
Q 13.234375 26.265625 9.515625 29.90625 
Q 5.8125 33.546875 5.8125 39.890625 
Q 5.8125 47.609375 11.28125 51.796875 
Q 16.75 56 26.8125 56 
Q 31.78125 56 36.171875 55.265625 
Q 40.578125 54.546875 44.28125 53.078125 
z
" id="DejaVuSans-73"/>
      <path d="M 8.5 21.578125 
L 8.5 54.6875 
L 17.484375 54.6875 
L 17.484375 21.921875 
Q 17.484375 14.15625 20.5 10.265625 
Q 23.53125 6.390625 29.59375 6.390625 
Q 36.859375 6.390625 41.078125 11.03125 
Q 45.3125 15.671875 45.3125 23.6875 
L 45.3125 54.6875 
L 54.296875 54.6875 
L 54.296875 0 
L 45.3125 0 
L 45.3125 8.40625 
Q 42.046875 3.421875 37.71875 1 
Q 33.40625 -1.421875 27.6875 -1.421875 
Q 18.265625 -1.421875 13.375 4.4375 
Q 8.5 10.296875 8.5 21.578125 
z
M 31.109375 56 
z
" id="DejaVuSans-75"/>
      <path d="M 8.59375 75.984375 
L 29.296875 75.984375 
L 29.296875 69 
L 17.578125 69 
L 17.578125 -6.203125 
L 29.296875 -6.203125 
L 29.296875 -13.1875 
L 8.59375 -13.1875 
z
" id="DejaVuSans-5b"/>
      <path d="M 34.28125 27.484375 
Q 23.390625 27.484375 19.1875 25 
Q 14.984375 22.515625 14.984375 16.5 
Q 14.984375 11.71875 18.140625 8.90625 
Q 21.296875 6.109375 26.703125 6.109375 
Q 34.1875 6.109375 38.703125 11.40625 
Q 43.21875 16.703125 43.21875 25.484375 
L 43.21875 27.484375 
z
M 52.203125 31.203125 
L 52.203125 0 
L 43.21875 0 
L 43.21875 8.296875 
Q 40.140625 3.328125 35.546875 0.953125 
Q 30.953125 -1.421875 24.3125 -1.421875 
Q 15.921875 -1.421875 10.953125 3.296875 
Q 6 8.015625 6 15.921875 
Q 6 25.140625 12.171875 29.828125 
Q 18.359375 34.515625 30.609375 34.515625 
L 43.21875 34.515625 
L 43.21875 35.40625 
Q 43.21875 41.609375 39.140625 45 
Q 35.0625 48.390625 27.6875 48.390625 
Q 23 48.390625 18.546875 47.265625 
Q 14.109375 46.140625 10.015625 43.890625 
L 10.015625 52.203125 
Q 14.9375 54.109375 19.578125 55.046875 
Q 24.21875 56 28.609375 56 
Q 40.484375 56 46.34375 49.84375 
Q 52.203125 43.703125 52.203125 31.203125 
z
" id="DejaVuSans-61"/>
      <path d="M 30.421875 75.984375 
L 30.421875 -13.1875 
L 9.71875 -13.1875 
L 9.71875 -6.203125 
L 21.390625 -6.203125 
L 21.390625 69 
L 9.71875 69 
L 9.71875 75.984375 
z
" id="DejaVuSans-5d"/>
     </defs>
     <g transform="translate(384.66044 734.438162)scale(0.1 -0.1)">
      <use xlink:href="#DejaVuSans-50"/>
      <use x="60.287109" xlink:href="#DejaVuSans-72"/>
      <use x="101.369141" xlink:href="#DejaVuSans-65"/>
      <use x="162.892578" xlink:href="#DejaVuSans-73"/>
      <use x="214.992188" xlink:href="#DejaVuSans-73"/>
      <use x="267.091797" xlink:href="#DejaVuSans-75"/>
      <use x="330.470703" xlink:href="#DejaVuSans-72"/>
      <use x="371.552734" xlink:href="#DejaVuSans-65"/>
      <use x="433.076172" xlink:href="#DejaVuSans-5b"/>
      <use x="472.089844" xlink:href="#DejaVuSans-50"/>
      <use x="532.330078" xlink:href="#DejaVuSans-61"/>
      <use x="593.609375" xlink:href="#DejaVuSans-5d"/>
     </g>
    </g>
   </g>
   <g id="matplotlib.axis_2">
    <g id="ytick_1">
     <g id="line2d_19">
      <path clip-path="url(#pcba5afc950)" d="M 172.8 693.12564 
L 659.781818 693.12564 
" style="fill:none;stroke:#b0b0b0;stroke-linecap:square;stroke-width:0.8;"/>
     </g>
     <g id="line2d_20">
      <defs>
       <path d="M 0 0 
L -3.5 0 
" id="m4a1e5037d3" style="stroke:#000000;stroke-width:0.8;"/>
      </defs>
      <g>
       <use style="stroke:#000000;stroke-width:0.8;" x="172.8" xlink:href="#m4a1e5037d3" y="693.12564"/>
      </g>
     </g>
     <g id="text_11">
      <!-- 1.6 -->
      <defs>
       <path d="M 10.6875 12.40625 
L 21 12.40625 
L 21 0 
L 10.6875 0 
z
" id="DejaVuSans-2e"/>
       <path d="M 33.015625 40.375 
Q 26.375 40.375 22.484375 35.828125 
Q 18.609375 31.296875 18.609375 23.390625 
Q 18.609375 15.53125 22.484375 10.953125 
Q 26.375 6.390625 33.015625 6.390625 
Q 39.65625 6.390625 43.53125 10.953125 
Q 47.40625 15.53125 47.40625 23.390625 
Q 47.40625 31.296875 43.53125 35.828125 
Q 39.65625 40.375 33.015625 40.375 
z
M 52.59375 71.296875 
L 52.59375 62.3125 
Q 48.875 64.0625 45.09375 64.984375 
Q 41.3125 65.921875 37.59375 65.921875 
Q 27.828125 65.921875 22.671875 59.328125 
Q 17.53125 52.734375 16.796875 39.40625 
Q 19.671875 43.65625 24.015625 45.921875 
Q 28.375 48.1875 33.59375 48.1875 
Q 44.578125 48.1875 50.953125 41.515625 
Q 57.328125 34.859375 57.328125 23.390625 
Q 57.328125 12.15625 50.6875 5.359375 
Q 44.046875 -1.421875 33.015625 -1.421875 
Q 20.359375 -1.421875 13.671875 8.265625 
Q 6.984375 17.96875 6.984375 36.375 
Q 6.984375 53.65625 15.1875 63.9375 
Q 23.390625 74.21875 37.203125 74.21875 
Q 40.921875 74.21875 44.703125 73.484375 
Q 48.484375 72.75 52.59375 71.296875 
z
" id="DejaVuSans-36"/>
      </defs>
      <g transform="translate(149.896875 696.924859)scale(0.1 -0.1)">
       <use xlink:href="#DejaVuSans-31"/>
       <use x="63.623047" xlink:href="#DejaVuSans-2e"/>
       <use x="95.410156" xlink:href="#DejaVuSans-36"/>
      </g>
     </g>
    </g>
    <g id="ytick_2">
     <g id="line2d_21">
      <path clip-path="url(#pcba5afc950)" d="M 172.8 617.118241 
L 659.781818 617.118241 
" style="fill:none;stroke:#b0b0b0;stroke-linecap:square;stroke-width:0.8;"/>
     </g>
     <g id="line2d_22">
      <g>
       <use style="stroke:#000000;stroke-width:0.8;" x="172.8" xlink:href="#m4a1e5037d3" y="617.118241"/>
      </g>
     </g>
     <g id="text_12">
      <!-- 1.7 -->
      <g transform="translate(149.896875 620.917459)scale(0.1 -0.1)">
       <use xlink:href="#DejaVuSans-31"/>
       <use x="63.623047" xlink:href="#DejaVuSans-2e"/>
       <use x="95.410156" xlink:href="#DejaVuSans-37"/>
      </g>
     </g>
    </g>
    <g id="ytick_3">
     <g id="line2d_23">
      <path clip-path="url(#pcba5afc950)" d="M 172.8 541.110841 
L 659.781818 541.110841 
" style="fill:none;stroke:#b0b0b0;stroke-linecap:square;stroke-width:0.8;"/>
     </g>
     <g id="line2d_24">
      <g>
       <use style="stroke:#000000;stroke-width:0.8;" x="172.8" xlink:href="#m4a1e5037d3" y="541.110841"/>
      </g>
     </g>
     <g id="text_13">
      <!-- 1.8 -->
      <defs>
       <path d="M 31.78125 34.625 
Q 24.75 34.625 20.71875 30.859375 
Q 16.703125 27.09375 16.703125 20.515625 
Q 16.703125 13.921875 20.71875 10.15625 
Q 24.75 6.390625 31.78125 6.390625 
Q 38.8125 6.390625 42.859375 10.171875 
Q 46.921875 13.96875 46.921875 20.515625 
Q 46.921875 27.09375 42.890625 30.859375 
Q 38.875 34.625 31.78125 34.625 
z
M 21.921875 38.8125 
Q 15.578125 40.375 12.03125 44.71875 
Q 8.5 49.078125 8.5 55.328125 
Q 8.5 64.0625 14.71875 69.140625 
Q 20.953125 74.21875 31.78125 74.21875 
Q 42.671875 74.21875 48.875 69.140625 
Q 55.078125 64.0625 55.078125 55.328125 
Q 55.078125 49.078125 51.53125 44.71875 
Q 48 40.375 41.703125 38.8125 
Q 48.828125 37.15625 52.796875 32.3125 
Q 56.78125 27.484375 56.78125 20.515625 
Q 56.78125 9.90625 50.3125 4.234375 
Q 43.84375 -1.421875 31.78125 -1.421875 
Q 19.734375 -1.421875 13.25 4.234375 
Q 6.78125 9.90625 6.78125 20.515625 
Q 6.78125 27.484375 10.78125 32.3125 
Q 14.796875 37.15625 21.921875 38.8125 
z
M 18.3125 54.390625 
Q 18.3125 48.734375 21.84375 45.5625 
Q 25.390625 42.390625 31.78125 42.390625 
Q 38.140625 42.390625 41.71875 45.5625 
Q 45.3125 48.734375 45.3125 54.390625 
Q 45.3125 60.0625 41.71875 63.234375 
Q 38.140625 66.40625 31.78125 66.40625 
Q 25.390625 66.40625 21.84375 63.234375 
Q 18.3125 60.0625 18.3125 54.390625 
z
" id="DejaVuSans-38"/>
      </defs>
      <g transform="translate(149.896875 544.91006)scale(0.1 -0.1)">
       <use xlink:href="#DejaVuSans-31"/>
       <use x="63.623047" xlink:href="#DejaVuSans-2e"/>
       <use x="95.410156" xlink:href="#DejaVuSans-38"/>
      </g>
     </g>
    </g>
    <g id="ytick_4">
     <g id="line2d_25">
      <path clip-path="url(#pcba5afc950)" d="M 172.8 465.103441 
L 659.781818 465.103441 
" style="fill:none;stroke:#b0b0b0;stroke-linecap:square;stroke-width:0.8;"/>
     </g>
     <g id="line2d_26">
      <g>
       <use style="stroke:#000000;stroke-width:0.8;" x="172.8" xlink:href="#m4a1e5037d3" y="465.103441"/>
      </g>
     </g>
     <g id="text_14">
      <!-- 1.9 -->
      <defs>
       <path d="M 10.984375 1.515625 
L 10.984375 10.5 
Q 14.703125 8.734375 18.5 7.8125 
Q 22.3125 6.890625 25.984375 6.890625 
Q 35.75 6.890625 40.890625 13.453125 
Q 46.046875 20.015625 46.78125 33.40625 
Q 43.953125 29.203125 39.59375 26.953125 
Q 35.25 24.703125 29.984375 24.703125 
Q 19.046875 24.703125 12.671875 31.3125 
Q 6.296875 37.9375 6.296875 49.421875 
Q 6.296875 60.640625 12.9375 67.421875 
Q 19.578125 74.21875 30.609375 74.21875 
Q 43.265625 74.21875 49.921875 64.515625 
Q 56.59375 54.828125 56.59375 36.375 
Q 56.59375 19.140625 48.40625 8.859375 
Q 40.234375 -1.421875 26.421875 -1.421875 
Q 22.703125 -1.421875 18.890625 -0.6875 
Q 15.09375 0.046875 10.984375 1.515625 
z
M 30.609375 32.421875 
Q 37.25 32.421875 41.125 36.953125 
Q 45.015625 41.5 45.015625 49.421875 
Q 45.015625 57.28125 41.125 61.84375 
Q 37.25 66.40625 30.609375 66.40625 
Q 23.96875 66.40625 20.09375 61.84375 
Q 16.21875 57.28125 16.21875 49.421875 
Q 16.21875 41.5 20.09375 36.953125 
Q 23.96875 32.421875 30.609375 32.421875 
z
" id="DejaVuSans-39"/>
      </defs>
      <g transform="translate(149.896875 468.90266)scale(0.1 -0.1)">
       <use xlink:href="#DejaVuSans-31"/>
       <use x="63.623047" xlink:href="#DejaVuSans-2e"/>
       <use x="95.410156" xlink:href="#DejaVuSans-39"/>
      </g>
     </g>
    </g>
    <g id="ytick_5">
     <g id="line2d_27">
      <path clip-path="url(#pcba5afc950)" d="M 172.8 389.096042 
L 659.781818 389.096042 
" style="fill:none;stroke:#b0b0b0;stroke-linecap:square;stroke-width:0.8;"/>
     </g>
     <g id="line2d_28">
      <g>
       <use style="stroke:#000000;stroke-width:0.8;" x="172.8" xlink:href="#m4a1e5037d3" y="389.096042"/>
      </g>
     </g>
     <g id="text_15">
      <!-- 2.0 -->
      <g transform="translate(149.896875 392.895261)scale(0.1 -0.1)">
       <use xlink:href="#DejaVuSans-32"/>
       <use x="63.623047" xlink:href="#DejaVuSans-2e"/>
       <use x="95.410156" xlink:href="#DejaVuSans-30"/>
      </g>
     </g>
    </g>
    <g id="ytick_6">
     <g id="line2d_29">
      <path clip-path="url(#pcba5afc950)" d="M 172.8 313.088642 
L 659.781818 313.088642 
" style="fill:none;stroke:#b0b0b0;stroke-linecap:square;stroke-width:0.8;"/>
     </g>
     <g id="line2d_30">
      <g>
       <use style="stroke:#000000;stroke-width:0.8;" x="172.8" xlink:href="#m4a1e5037d3" y="313.088642"/>
      </g>
     </g>
     <g id="text_16">
      <!-- 2.1 -->
      <g transform="translate(149.896875 316.887861)scale(0.1 -0.1)">
       <use xlink:href="#DejaVuSans-32"/>
       <use x="63.623047" xlink:href="#DejaVuSans-2e"/>
       <use x="95.410156" xlink:href="#DejaVuSans-31"/>
      </g>
     </g>
    </g>
    <g id="ytick_7">
     <g id="line2d_31">
      <path clip-path="url(#pcba5afc950)" d="M 172.8 237.081243 
L 659.781818 237.081243 
" style="fill:none;stroke:#b0b0b0;stroke-linecap:square;stroke-width:0.8;"/>
     </g>
     <g id="line2d_32">
      <g>
       <use style="stroke:#000000;stroke-width:0.8;" x="172.8" xlink:href="#m4a1e5037d3" y="237.081243"/>
      </g>
     </g>
     <g id="text_17">
      <!-- 2.2 -->
      <g transform="translate(149.896875 240.880461)scale(0.1 -0.1)">
       <use xlink:href="#DejaVuSans-32"/>
       <use x="63.623047" xlink:href="#DejaVuSans-2e"/>
       <use x="95.410156" xlink:href="#DejaVuSans-32"/>
      </g>
     </g>
    </g>
    <g id="ytick_8">
     <g id="line2d_33">
      <path clip-path="url(#pcba5afc950)" d="M 172.8 161.073843 
L 659.781818 161.073843 
" style="fill:none;stroke:#b0b0b0;stroke-linecap:square;stroke-width:0.8;"/>
     </g>
     <g id="line2d_34">
      <g>
       <use style="stroke:#000000;stroke-width:0.8;" x="172.8" xlink:href="#m4a1e5037d3" y="161.073843"/>
      </g>
     </g>
     <g id="text_18">
      <!-- 2.3 -->
      <defs>
       <path d="M 40.578125 39.3125 
Q 47.65625 37.796875 51.625 33 
Q 55.609375 28.21875 55.609375 21.1875 
Q 55.609375 10.40625 48.1875 4.484375 
Q 40.765625 -1.421875 27.09375 -1.421875 
Q 22.515625 -1.421875 17.65625 -0.515625 
Q 12.796875 0.390625 7.625 2.203125 
L 7.625 11.71875 
Q 11.71875 9.328125 16.59375 8.109375 
Q 21.484375 6.890625 26.8125 6.890625 
Q 36.078125 6.890625 40.9375 10.546875 
Q 45.796875 14.203125 45.796875 21.1875 
Q 45.796875 27.640625 41.28125 31.265625 
Q 36.765625 34.90625 28.71875 34.90625 
L 20.21875 34.90625 
L 20.21875 43.015625 
L 29.109375 43.015625 
Q 36.375 43.015625 40.234375 45.921875 
Q 44.09375 48.828125 44.09375 54.296875 
Q 44.09375 59.90625 40.109375 62.90625 
Q 36.140625 65.921875 28.71875 65.921875 
Q 24.65625 65.921875 20.015625 65.03125 
Q 15.375 64.15625 9.8125 62.3125 
L 9.8125 71.09375 
Q 15.4375 72.65625 20.34375 73.4375 
Q 25.25 74.21875 29.59375 74.21875 
Q 40.828125 74.21875 47.359375 69.109375 
Q 53.90625 64.015625 53.90625 55.328125 
Q 53.90625 49.265625 50.4375 45.09375 
Q 46.96875 40.921875 40.578125 39.3125 
z
" id="DejaVuSans-33"/>
      </defs>
      <g transform="translate(149.896875 164.873062)scale(0.1 -0.1)">
       <use xlink:href="#DejaVuSans-32"/>
       <use x="63.623047" xlink:href="#DejaVuSans-2e"/>
       <use x="95.410156" xlink:href="#DejaVuSans-33"/>
      </g>
     </g>
    </g>
    <g id="text_19">
     <!-- $n_{e}[m^{-3}]$ -->
     <defs>
      <path d="M 55.71875 33.015625 
L 49.3125 0 
L 40.28125 0 
L 46.6875 32.671875 
Q 47.125 34.96875 47.359375 36.71875 
Q 47.609375 38.484375 47.609375 39.5 
Q 47.609375 43.609375 45.015625 45.890625 
Q 42.4375 48.1875 37.796875 48.1875 
Q 30.5625 48.1875 25.34375 43.375 
Q 20.125 38.578125 18.5 30.328125 
L 12.5 0 
L 3.515625 0 
L 14.109375 54.6875 
L 23.09375 54.6875 
L 21.296875 46.09375 
Q 25.046875 50.828125 30.3125 53.40625 
Q 35.59375 56 41.40625 56 
Q 48.640625 56 52.609375 52.09375 
Q 56.59375 48.1875 56.59375 41.109375 
Q 56.59375 39.359375 56.375 37.359375 
Q 56.15625 35.359375 55.71875 33.015625 
z
" id="DejaVuSans-Oblique-6e"/>
      <path d="M 48.09375 32.234375 
Q 48.25 33.015625 48.3125 33.84375 
Q 48.390625 34.671875 48.390625 35.5 
Q 48.390625 41.453125 44.890625 44.921875 
Q 41.40625 48.390625 35.40625 48.390625 
Q 28.71875 48.390625 23.578125 44.15625 
Q 18.453125 39.9375 15.828125 32.171875 
z
M 55.90625 25.203125 
L 14.109375 25.203125 
Q 13.8125 23.34375 13.71875 22.265625 
Q 13.625 21.1875 13.625 20.40625 
Q 13.625 13.625 17.796875 9.90625 
Q 21.96875 6.203125 29.59375 6.203125 
Q 35.453125 6.203125 40.671875 7.515625 
Q 45.90625 8.84375 50.390625 11.375 
L 48.6875 2.484375 
Q 43.84375 0.53125 38.6875 -0.4375 
Q 33.546875 -1.421875 28.21875 -1.421875 
Q 16.84375 -1.421875 10.71875 4.015625 
Q 4.59375 9.46875 4.59375 19.484375 
Q 4.59375 28.03125 7.640625 35.375 
Q 10.6875 42.71875 16.609375 48.484375 
Q 20.40625 52.09375 25.65625 54.046875 
Q 30.90625 56 36.8125 56 
Q 46.09375 56 51.578125 50.4375 
Q 57.078125 44.875 57.078125 35.5 
Q 57.078125 33.25 56.78125 30.6875 
Q 56.5 28.125 55.90625 25.203125 
z
" id="DejaVuSans-Oblique-65"/>
      <path d="M 89.796875 33.015625 
L 83.40625 0 
L 74.421875 0 
L 80.71875 32.71875 
Q 81.109375 34.8125 81.296875 36.328125 
Q 81.5 37.84375 81.5 38.921875 
Q 81.5 43.3125 79.046875 45.75 
Q 76.609375 48.1875 72.21875 48.1875 
Q 65.671875 48.1875 60.546875 43.28125 
Q 55.421875 38.375 53.90625 30.515625 
L 47.90625 0 
L 38.921875 0 
L 45.3125 32.71875 
Q 45.703125 34.515625 45.890625 36.046875 
Q 46.09375 37.59375 46.09375 38.8125 
Q 46.09375 43.265625 43.65625 45.71875 
Q 41.21875 48.1875 36.921875 48.1875 
Q 30.28125 48.1875 25.140625 43.28125 
Q 20.015625 38.375 18.5 30.515625 
L 12.5 0 
L 3.515625 0 
L 14.203125 54.6875 
L 23.1875 54.6875 
L 21.484375 46.1875 
Q 25.140625 50.984375 30.046875 53.484375 
Q 34.96875 56 40.578125 56 
Q 46.53125 56 50.359375 52.875 
Q 54.203125 49.75 54.984375 44.1875 
Q 59.078125 49.953125 64.46875 52.96875 
Q 69.875 56 75.875 56 
Q 82.90625 56 86.734375 51.953125 
Q 90.578125 47.90625 90.578125 40.484375 
Q 90.578125 38.875 90.375 36.9375 
Q 90.1875 35.015625 89.796875 33.015625 
z
" id="DejaVuSans-Oblique-6d"/>
      <path d="M 10.59375 35.5 
L 73.1875 35.5 
L 73.1875 27.203125 
L 10.59375 27.203125 
z
" id="DejaVuSans-2212"/>
     </defs>
     <g transform="translate(143.817187 420.4872)rotate(-90)scale(0.1 -0.1)">
      <use transform="translate(0 0.765625)" xlink:href="#DejaVuSans-Oblique-6e"/>
      <use transform="translate(63.378906 -15.640625)scale(0.7)" xlink:href="#DejaVuSans-Oblique-65"/>
      <use transform="translate(109.179688 0.765625)" xlink:href="#DejaVuSans-5b"/>
      <use transform="translate(148.193359 0.765625)" xlink:href="#DejaVuSans-Oblique-6d"/>
      <use transform="translate(250.255365 39.046875)scale(0.7)" xlink:href="#DejaVuSans-2212"/>
      <use transform="translate(308.907708 39.046875)scale(0.7)" xlink:href="#DejaVuSans-33"/>
      <use transform="translate(356.178216 0.765625)" xlink:href="#DejaVuSans-5d"/>
     </g>
    </g>
    <g id="text_20">
     <!-- 1e15 -->
     <g transform="translate(172.8 92.2128)scale(0.1 -0.1)">
      <use xlink:href="#DejaVuSans-31"/>
      <use x="63.623047" xlink:href="#DejaVuSans-65"/>
      <use x="125.146484" xlink:href="#DejaVuSans-31"/>
      <use x="188.769531" xlink:href="#DejaVuSans-35"/>
     </g>
    </g>
   </g>
   <g id="LineCollection_1">
    <path clip-path="url(#pcba5afc950)" d="M 390.249101 161.989278 
L 398.929703 161.989278 
" style="fill:none;stroke:#ff0000;stroke-width:1.5;"/>
    <path clip-path="url(#pcba5afc950)" d="M 194.935537 455.373355 
L 203.61614 455.373355 
" style="fill:none;stroke:#ff0000;stroke-width:1.5;"/>
    <path clip-path="url(#pcba5afc950)" d="M 194.935537 650.164654 
L 203.61614 650.164654 
" style="fill:none;stroke:#ff0000;stroke-width:1.5;"/>
    <path clip-path="url(#pcba5afc950)" d="M 207.956441 650.164654 
L 216.637044 650.164654 
" style="fill:none;stroke:#ff0000;stroke-width:1.5;"/>
    <path clip-path="url(#pcba5afc950)" d="M 628.965678 274.920246 
L 637.646281 274.920246 
" style="fill:none;stroke:#ff0000;stroke-width:1.5;"/>
    <path clip-path="url(#pcba5afc950)" d="M 227.487798 367.198166 
L 236.168401 367.198166 
" style="fill:none;stroke:#ff0000;stroke-width:1.5;"/>
    <path clip-path="url(#pcba5afc950)" d="M 227.487798 367.198166 
L 236.168401 367.198166 
" style="fill:none;stroke:#ff0000;stroke-width:1.5;"/>
    <path clip-path="url(#pcba5afc950)" d="M 251.359456 214.172528 
L 260.040058 214.172528 
" style="fill:none;stroke:#ff0000;stroke-width:1.5;"/>
    <path clip-path="url(#pcba5afc950)" d="M 281.741565 154.727214 
L 290.422168 154.727214 
" style="fill:none;stroke:#ff0000;stroke-width:1.5;"/>
    <path clip-path="url(#pcba5afc950)" d="M 335.995333 248.821009 
L 344.675936 248.821009 
" style="fill:none;stroke:#ff0000;stroke-width:1.5;"/>
   </g>
   <g id="LineCollection_2">
    <path clip-path="url(#pcba5afc950)" d="M 394.589402 196.020651 
L 394.589402 127.957906 
" style="fill:none;stroke:#ff0000;stroke-width:1.5;"/>
    <path clip-path="url(#pcba5afc950)" d="M 199.275839 484.390247 
L 199.275839 426.356463 
" style="fill:none;stroke:#ff0000;stroke-width:1.5;"/>
    <path clip-path="url(#pcba5afc950)" d="M 199.275839 678.3912 
L 199.275839 621.938107 
" style="fill:none;stroke:#ff0000;stroke-width:1.5;"/>
    <path clip-path="url(#pcba5afc950)" d="M 212.296743 678.3912 
L 212.296743 621.938107 
" style="fill:none;stroke:#ff0000;stroke-width:1.5;"/>
    <path clip-path="url(#pcba5afc950)" d="M 633.30598 310.277768 
L 633.30598 239.562723 
" style="fill:none;stroke:#ff0000;stroke-width:1.5;"/>
    <path clip-path="url(#pcba5afc950)" d="M 231.828099 396.715422 
L 231.828099 337.680909 
" style="fill:none;stroke:#ff0000;stroke-width:1.5;"/>
    <path clip-path="url(#pcba5afc950)" d="M 231.828099 396.715422 
L 231.828099 337.680909 
" style="fill:none;stroke:#ff0000;stroke-width:1.5;"/>
    <path clip-path="url(#pcba5afc950)" d="M 255.699757 244.855934 
L 255.699757 183.489122 
" style="fill:none;stroke:#ff0000;stroke-width:1.5;"/>
    <path clip-path="url(#pcba5afc950)" d="M 286.081867 186.471229 
L 286.081867 122.9832 
" style="fill:none;stroke:#ff0000;stroke-width:1.5;"/>
    <path clip-path="url(#pcba5afc950)" d="M 340.335634 283.096357 
L 340.335634 214.545662 
" style="fill:none;stroke:#ff0000;stroke-width:1.5;"/>
   </g>
   <g id="line2d_35">
    <defs>
     <path d="M -3 3 
L 3 -3 
M -3 -3 
L 3 3 
" id="m6b2ed63387" style="stroke:#ff0000;"/>
    </defs>
    <g clip-path="url(#pcba5afc950)">
     <use style="fill:#ff0000;stroke:#ff0000;" x="394.589402" xlink:href="#m6b2ed63387" y="161.989278"/>
     <use style="fill:#ff0000;stroke:#ff0000;" x="199.275839" xlink:href="#m6b2ed63387" y="455.373355"/>
     <use style="fill:#ff0000;stroke:#ff0000;" x="199.275839" xlink:href="#m6b2ed63387" y="650.164654"/>
     <use style="fill:#ff0000;stroke:#ff0000;" x="212.296743" xlink:href="#m6b2ed63387" y="650.164654"/>
     <use style="fill:#ff0000;stroke:#ff0000;" x="633.30598" xlink:href="#m6b2ed63387" y="274.920246"/>
     <use style="fill:#ff0000;stroke:#ff0000;" x="231.828099" xlink:href="#m6b2ed63387" y="367.198166"/>
     <use style="fill:#ff0000;stroke:#ff0000;" x="231.828099" xlink:href="#m6b2ed63387" y="367.198166"/>
     <use style="fill:#ff0000;stroke:#ff0000;" x="255.699757" xlink:href="#m6b2ed63387" y="214.172528"/>
     <use style="fill:#ff0000;stroke:#ff0000;" x="286.081867" xlink:href="#m6b2ed63387" y="154.727214"/>
     <use style="fill:#ff0000;stroke:#ff0000;" x="340.335634" xlink:href="#m6b2ed63387" y="248.821009"/>
    </g>
   </g>
   <g id="patch_3">
    <path d="M 172.8 706.1616 
L 172.8 95.2128 
" style="fill:none;stroke:#000000;stroke-linecap:square;stroke-linejoin:miter;stroke-width:0.8;"/>
   </g>
   <g id="patch_4">
    <path d="M 659.781818 706.1616 
L 659.781818 95.2128 
" style="fill:none;stroke:#000000;stroke-linecap:square;stroke-linejoin:miter;stroke-width:0.8;"/>
   </g>
   <g id="patch_5">
    <path d="M 172.8 706.1616 
L 659.781818 706.1616 
" style="fill:none;stroke:#000000;stroke-linecap:square;stroke-linejoin:miter;stroke-width:0.8;"/>
   </g>
   <g id="patch_6">
    <path d="M 172.8 95.2128 
L 659.781818 95.2128 
" style="fill:none;stroke:#000000;stroke-linecap:square;stroke-linejoin:miter;stroke-width:0.8;"/>
   </g>
  </g>
  <g id="axes_2">
   <g id="patch_7">
    <path d="M 757.178182 706.1616 
L 1244.16 706.1616 
L 1244.16 95.2128 
L 757.178182 95.2128 
z
" style="fill:#ffffff;"/>
   </g>
   <g id="matplotlib.axis_3">
    <g id="xtick_10">
     <g id="line2d_36">
      <path clip-path="url(#p59c619d970)" d="M 761.952513 706.1616 
L 761.952513 95.2128 
" style="fill:none;stroke:#b0b0b0;stroke-linecap:square;stroke-width:0.8;"/>
     </g>
     <g id="line2d_37">
      <g>
       <use style="stroke:#000000;stroke-width:0.8;" x="761.952513" xlink:href="#mde8738ef0d" y="706.1616"/>
      </g>
     </g>
     <g id="text_21">
      <!-- 0 -->
      <g transform="translate(758.771263 720.760037)scale(0.1 -0.1)">
       <use xlink:href="#DejaVuSans-30"/>
      </g>
     </g>
    </g>
    <g id="xtick_11">
     <g id="line2d_38">
      <path clip-path="url(#p59c619d970)" d="M 816.206281 706.1616 
L 816.206281 95.2128 
" style="fill:none;stroke:#b0b0b0;stroke-linecap:square;stroke-width:0.8;"/>
     </g>
     <g id="line2d_39">
      <g>
       <use style="stroke:#000000;stroke-width:0.8;" x="816.206281" xlink:href="#mde8738ef0d" y="706.1616"/>
      </g>
     </g>
     <g id="text_22">
      <!-- 250 -->
      <g transform="translate(806.662531 720.760037)scale(0.1 -0.1)">
       <use xlink:href="#DejaVuSans-32"/>
       <use x="63.623047" xlink:href="#DejaVuSans-35"/>
       <use x="127.246094" xlink:href="#DejaVuSans-30"/>
      </g>
     </g>
    </g>
    <g id="xtick_12">
     <g id="line2d_40">
      <path clip-path="url(#p59c619d970)" d="M 870.460049 706.1616 
L 870.460049 95.2128 
" style="fill:none;stroke:#b0b0b0;stroke-linecap:square;stroke-width:0.8;"/>
     </g>
     <g id="line2d_41">
      <g>
       <use style="stroke:#000000;stroke-width:0.8;" x="870.460049" xlink:href="#mde8738ef0d" y="706.1616"/>
      </g>
     </g>
     <g id="text_23">
      <!-- 500 -->
      <g transform="translate(860.916299 720.760037)scale(0.1 -0.1)">
       <use xlink:href="#DejaVuSans-35"/>
       <use x="63.623047" xlink:href="#DejaVuSans-30"/>
       <use x="127.246094" xlink:href="#DejaVuSans-30"/>
      </g>
     </g>
    </g>
    <g id="xtick_13">
     <g id="line2d_42">
      <path clip-path="url(#p59c619d970)" d="M 924.713816 706.1616 
L 924.713816 95.2128 
" style="fill:none;stroke:#b0b0b0;stroke-linecap:square;stroke-width:0.8;"/>
     </g>
     <g id="line2d_43">
      <g>
       <use style="stroke:#000000;stroke-width:0.8;" x="924.713816" xlink:href="#mde8738ef0d" y="706.1616"/>
      </g>
     </g>
     <g id="text_24">
      <!-- 750 -->
      <g transform="translate(915.170066 720.760037)scale(0.1 -0.1)">
       <use xlink:href="#DejaVuSans-37"/>
       <use x="63.623047" xlink:href="#DejaVuSans-35"/>
       <use x="127.246094" xlink:href="#DejaVuSans-30"/>
      </g>
     </g>
    </g>
    <g id="xtick_14">
     <g id="line2d_44">
      <path clip-path="url(#p59c619d970)" d="M 978.967584 706.1616 
L 978.967584 95.2128 
" style="fill:none;stroke:#b0b0b0;stroke-linecap:square;stroke-width:0.8;"/>
     </g>
     <g id="line2d_45">
      <g>
       <use style="stroke:#000000;stroke-width:0.8;" x="978.967584" xlink:href="#mde8738ef0d" y="706.1616"/>
      </g>
     </g>
     <g id="text_25">
      <!-- 1000 -->
      <g transform="translate(966.242584 720.760037)scale(0.1 -0.1)">
       <use xlink:href="#DejaVuSans-31"/>
       <use x="63.623047" xlink:href="#DejaVuSans-30"/>
       <use x="127.246094" xlink:href="#DejaVuSans-30"/>
       <use x="190.869141" xlink:href="#DejaVuSans-30"/>
      </g>
     </g>
    </g>
    <g id="xtick_15">
     <g id="line2d_46">
      <path clip-path="url(#p59c619d970)" d="M 1033.221351 706.1616 
L 1033.221351 95.2128 
" style="fill:none;stroke:#b0b0b0;stroke-linecap:square;stroke-width:0.8;"/>
     </g>
     <g id="line2d_47">
      <g>
       <use style="stroke:#000000;stroke-width:0.8;" x="1033.221351" xlink:href="#mde8738ef0d" y="706.1616"/>
      </g>
     </g>
     <g id="text_26">
      <!-- 1250 -->
      <g transform="translate(1020.496351 720.760037)scale(0.1 -0.1)">
       <use xlink:href="#DejaVuSans-31"/>
       <use x="63.623047" xlink:href="#DejaVuSans-32"/>
       <use x="127.246094" xlink:href="#DejaVuSans-35"/>
       <use x="190.869141" xlink:href="#DejaVuSans-30"/>
      </g>
     </g>
    </g>
    <g id="xtick_16">
     <g id="line2d_48">
      <path clip-path="url(#p59c619d970)" d="M 1087.475119 706.1616 
L 1087.475119 95.2128 
" style="fill:none;stroke:#b0b0b0;stroke-linecap:square;stroke-width:0.8;"/>
     </g>
     <g id="line2d_49">
      <g>
       <use style="stroke:#000000;stroke-width:0.8;" x="1087.475119" xlink:href="#mde8738ef0d" y="706.1616"/>
      </g>
     </g>
     <g id="text_27">
      <!-- 1500 -->
      <g transform="translate(1074.750119 720.760037)scale(0.1 -0.1)">
       <use xlink:href="#DejaVuSans-31"/>
       <use x="63.623047" xlink:href="#DejaVuSans-35"/>
       <use x="127.246094" xlink:href="#DejaVuSans-30"/>
       <use x="190.869141" xlink:href="#DejaVuSans-30"/>
      </g>
     </g>
    </g>
    <g id="xtick_17">
     <g id="line2d_50">
      <path clip-path="url(#p59c619d970)" d="M 1141.728887 706.1616 
L 1141.728887 95.2128 
" style="fill:none;stroke:#b0b0b0;stroke-linecap:square;stroke-width:0.8;"/>
     </g>
     <g id="line2d_51">
      <g>
       <use style="stroke:#000000;stroke-width:0.8;" x="1141.728887" xlink:href="#mde8738ef0d" y="706.1616"/>
      </g>
     </g>
     <g id="text_28">
      <!-- 1750 -->
      <g transform="translate(1129.003887 720.760037)scale(0.1 -0.1)">
       <use xlink:href="#DejaVuSans-31"/>
       <use x="63.623047" xlink:href="#DejaVuSans-37"/>
       <use x="127.246094" xlink:href="#DejaVuSans-35"/>
       <use x="190.869141" xlink:href="#DejaVuSans-30"/>
      </g>
     </g>
    </g>
    <g id="xtick_18">
     <g id="line2d_52">
      <path clip-path="url(#p59c619d970)" d="M 1195.982654 706.1616 
L 1195.982654 95.2128 
" style="fill:none;stroke:#b0b0b0;stroke-linecap:square;stroke-width:0.8;"/>
     </g>
     <g id="line2d_53">
      <g>
       <use style="stroke:#000000;stroke-width:0.8;" x="1195.982654" xlink:href="#mde8738ef0d" y="706.1616"/>
      </g>
     </g>
     <g id="text_29">
      <!-- 2000 -->
      <g transform="translate(1183.257654 720.760037)scale(0.1 -0.1)">
       <use xlink:href="#DejaVuSans-32"/>
       <use x="63.623047" xlink:href="#DejaVuSans-30"/>
       <use x="127.246094" xlink:href="#DejaVuSans-30"/>
       <use x="190.869141" xlink:href="#DejaVuSans-30"/>
      </g>
     </g>
    </g>
    <g id="text_30">
     <!-- Pressure[Pa] -->
     <g transform="translate(969.038622 734.438162)scale(0.1 -0.1)">
      <use xlink:href="#DejaVuSans-50"/>
      <use x="60.287109" xlink:href="#DejaVuSans-72"/>
      <use x="101.369141" xlink:href="#DejaVuSans-65"/>
      <use x="162.892578" xlink:href="#DejaVuSans-73"/>
      <use x="214.992188" xlink:href="#DejaVuSans-73"/>
      <use x="267.091797" xlink:href="#DejaVuSans-75"/>
      <use x="330.470703" xlink:href="#DejaVuSans-72"/>
      <use x="371.552734" xlink:href="#DejaVuSans-65"/>
      <use x="433.076172" xlink:href="#DejaVuSans-5b"/>
      <use x="472.089844" xlink:href="#DejaVuSans-50"/>
      <use x="532.330078" xlink:href="#DejaVuSans-61"/>
      <use x="593.609375" xlink:href="#DejaVuSans-5d"/>
     </g>
    </g>
   </g>
   <g id="matplotlib.axis_4">
    <g id="ytick_9">
     <g id="line2d_54">
      <path clip-path="url(#p59c619d970)" d="M 757.178182 630.845184 
L 1244.16 630.845184 
" style="fill:none;stroke:#b0b0b0;stroke-linecap:square;stroke-width:0.8;"/>
     </g>
     <g id="line2d_55">
      <g>
       <use style="stroke:#000000;stroke-width:0.8;" x="757.178182" xlink:href="#m4a1e5037d3" y="630.845184"/>
      </g>
     </g>
     <g id="text_31">
      <!-- 0.8 -->
      <g transform="translate(734.275057 634.644403)scale(0.1 -0.1)">
       <use xlink:href="#DejaVuSans-30"/>
       <use x="63.623047" xlink:href="#DejaVuSans-2e"/>
       <use x="95.410156" xlink:href="#DejaVuSans-38"/>
      </g>
     </g>
    </g>
    <g id="ytick_10">
     <g id="line2d_56">
      <path clip-path="url(#p59c619d970)" d="M 757.178182 549.427883 
L 1244.16 549.427883 
" style="fill:none;stroke:#b0b0b0;stroke-linecap:square;stroke-width:0.8;"/>
     </g>
     <g id="line2d_57">
      <g>
       <use style="stroke:#000000;stroke-width:0.8;" x="757.178182" xlink:href="#m4a1e5037d3" y="549.427883"/>
      </g>
     </g>
     <g id="text_32">
      <!-- 1.0 -->
      <g transform="translate(734.275057 553.227102)scale(0.1 -0.1)">
       <use xlink:href="#DejaVuSans-31"/>
       <use x="63.623047" xlink:href="#DejaVuSans-2e"/>
       <use x="95.410156" xlink:href="#DejaVuSans-30"/>
      </g>
     </g>
    </g>
    <g id="ytick_11">
     <g id="line2d_58">
      <path clip-path="url(#p59c619d970)" d="M 757.178182 468.010583 
L 1244.16 468.010583 
" style="fill:none;stroke:#b0b0b0;stroke-linecap:square;stroke-width:0.8;"/>
     </g>
     <g id="line2d_59">
      <g>
       <use style="stroke:#000000;stroke-width:0.8;" x="757.178182" xlink:href="#m4a1e5037d3" y="468.010583"/>
      </g>
     </g>
     <g id="text_33">
      <!-- 1.2 -->
      <g transform="translate(734.275057 471.809801)scale(0.1 -0.1)">
       <use xlink:href="#DejaVuSans-31"/>
       <use x="63.623047" xlink:href="#DejaVuSans-2e"/>
       <use x="95.410156" xlink:href="#DejaVuSans-32"/>
      </g>
     </g>
    </g>
    <g id="ytick_12">
     <g id="line2d_60">
      <path clip-path="url(#p59c619d970)" d="M 757.178182 386.593282 
L 1244.16 386.593282 
" style="fill:none;stroke:#b0b0b0;stroke-linecap:square;stroke-width:0.8;"/>
     </g>
     <g id="line2d_61">
      <g>
       <use style="stroke:#000000;stroke-width:0.8;" x="757.178182" xlink:href="#m4a1e5037d3" y="386.593282"/>
      </g>
     </g>
     <g id="text_34">
      <!-- 1.4 -->
      <defs>
       <path d="M 37.796875 64.3125 
L 12.890625 25.390625 
L 37.796875 25.390625 
z
M 35.203125 72.90625 
L 47.609375 72.90625 
L 47.609375 25.390625 
L 58.015625 25.390625 
L 58.015625 17.1875 
L 47.609375 17.1875 
L 47.609375 0 
L 37.796875 0 
L 37.796875 17.1875 
L 4.890625 17.1875 
L 4.890625 26.703125 
z
" id="DejaVuSans-34"/>
      </defs>
      <g transform="translate(734.275057 390.3925)scale(0.1 -0.1)">
       <use xlink:href="#DejaVuSans-31"/>
       <use x="63.623047" xlink:href="#DejaVuSans-2e"/>
       <use x="95.410156" xlink:href="#DejaVuSans-34"/>
      </g>
     </g>
    </g>
    <g id="ytick_13">
     <g id="line2d_62">
      <path clip-path="url(#p59c619d970)" d="M 757.178182 305.175981 
L 1244.16 305.175981 
" style="fill:none;stroke:#b0b0b0;stroke-linecap:square;stroke-width:0.8;"/>
     </g>
     <g id="line2d_63">
      <g>
       <use style="stroke:#000000;stroke-width:0.8;" x="757.178182" xlink:href="#m4a1e5037d3" y="305.175981"/>
      </g>
     </g>
     <g id="text_35">
      <!-- 1.6 -->
      <g transform="translate(734.275057 308.9752)scale(0.1 -0.1)">
       <use xlink:href="#DejaVuSans-31"/>
       <use x="63.623047" xlink:href="#DejaVuSans-2e"/>
       <use x="95.410156" xlink:href="#DejaVuSans-36"/>
      </g>
     </g>
    </g>
    <g id="ytick_14">
     <g id="line2d_64">
      <path clip-path="url(#p59c619d970)" d="M 757.178182 223.75868 
L 1244.16 223.75868 
" style="fill:none;stroke:#b0b0b0;stroke-linecap:square;stroke-width:0.8;"/>
     </g>
     <g id="line2d_65">
      <g>
       <use style="stroke:#000000;stroke-width:0.8;" x="757.178182" xlink:href="#m4a1e5037d3" y="223.75868"/>
      </g>
     </g>
     <g id="text_36">
      <!-- 1.8 -->
      <g transform="translate(734.275057 227.557899)scale(0.1 -0.1)">
       <use xlink:href="#DejaVuSans-31"/>
       <use x="63.623047" xlink:href="#DejaVuSans-2e"/>
       <use x="95.410156" xlink:href="#DejaVuSans-38"/>
      </g>
     </g>
    </g>
    <g id="ytick_15">
     <g id="line2d_66">
      <path clip-path="url(#p59c619d970)" d="M 757.178182 142.341379 
L 1244.16 142.341379 
" style="fill:none;stroke:#b0b0b0;stroke-linecap:square;stroke-width:0.8;"/>
     </g>
     <g id="line2d_67">
      <g>
       <use style="stroke:#000000;stroke-width:0.8;" x="757.178182" xlink:href="#m4a1e5037d3" y="142.341379"/>
      </g>
     </g>
     <g id="text_37">
      <!-- 2.0 -->
      <g transform="translate(734.275057 146.140598)scale(0.1 -0.1)">
       <use xlink:href="#DejaVuSans-32"/>
       <use x="63.623047" xlink:href="#DejaVuSans-2e"/>
       <use x="95.410156" xlink:href="#DejaVuSans-30"/>
      </g>
     </g>
    </g>
    <g id="text_38">
     <!-- $n_{e}[m^{-3}]$ -->
     <g transform="translate(728.195369 420.4872)rotate(-90)scale(0.1 -0.1)">
      <use transform="translate(0 0.765625)" xlink:href="#DejaVuSans-Oblique-6e"/>
      <use transform="translate(63.378906 -15.640625)scale(0.7)" xlink:href="#DejaVuSans-Oblique-65"/>
      <use transform="translate(109.179688 0.765625)" xlink:href="#DejaVuSans-5b"/>
      <use transform="translate(148.193359 0.765625)" xlink:href="#DejaVuSans-Oblique-6d"/>
      <use transform="translate(250.255365 39.046875)scale(0.7)" xlink:href="#DejaVuSans-2212"/>
      <use transform="translate(308.907708 39.046875)scale(0.7)" xlink:href="#DejaVuSans-33"/>
      <use transform="translate(356.178216 0.765625)" xlink:href="#DejaVuSans-5d"/>
     </g>
    </g>
    <g id="text_39">
     <!-- 1e14 -->
     <g transform="translate(757.178182 92.2128)scale(0.1 -0.1)">
      <use xlink:href="#DejaVuSans-31"/>
      <use x="63.623047" xlink:href="#DejaVuSans-65"/>
      <use x="125.146484" xlink:href="#DejaVuSans-31"/>
      <use x="188.769531" xlink:href="#DejaVuSans-34"/>
     </g>
    </g>
   </g>
   <g id="LineCollection_3">
    <path clip-path="url(#p59c619d970)" d="M 974.627282 327.279362 
L 983.307885 327.279362 
" style="fill:none;stroke:#ff0000;stroke-width:1.5;"/>
    <path clip-path="url(#p59c619d970)" d="M 779.313719 366.46424 
L 787.994322 366.46424 
" style="fill:none;stroke:#ff0000;stroke-width:1.5;"/>
    <path clip-path="url(#p59c619d970)" d="M 792.334623 438.103924 
L 801.015226 438.103924 
" style="fill:none;stroke:#ff0000;stroke-width:1.5;"/>
    <path clip-path="url(#p59c619d970)" d="M 1213.34386 147.354434 
L 1222.024463 147.354434 
" style="fill:none;stroke:#ff0000;stroke-width:1.5;"/>
    <path clip-path="url(#p59c619d970)" d="M 811.86598 426.106105 
L 820.546582 426.106105 
" style="fill:none;stroke:#ff0000;stroke-width:1.5;"/>
    <path clip-path="url(#p59c619d970)" d="M 837.907788 349.058842 
L 846.588391 349.058842 
" style="fill:none;stroke:#ff0000;stroke-width:1.5;"/>
    <path clip-path="url(#p59c619d970)" d="M 866.119747 596.594824 
L 874.80035 596.594824 
" style="fill:none;stroke:#ff0000;stroke-width:1.5;"/>
    <path clip-path="url(#p59c619d970)" d="M 920.373515 544.846003 
L 929.054118 544.846003 
" style="fill:none;stroke:#ff0000;stroke-width:1.5;"/>
   </g>
   <g id="LineCollection_4">
    <path clip-path="url(#p59c619d970)" d="M 978.967584 352.64151 
L 978.967584 301.917213 
" style="fill:none;stroke:#ff0000;stroke-width:1.5;"/>
    <path clip-path="url(#p59c619d970)" d="M 783.65402 389.941569 
L 783.65402 342.986912 
" style="fill:none;stroke:#ff0000;stroke-width:1.5;"/>
    <path clip-path="url(#p59c619d970)" d="M 796.674925 472.669105 
L 796.674925 403.538743 
" style="fill:none;stroke:#ff0000;stroke-width:1.5;"/>
    <path clip-path="url(#p59c619d970)" d="M 1217.684161 171.725668 
L 1217.684161 122.9832 
" style="fill:none;stroke:#ff0000;stroke-width:1.5;"/>
    <path clip-path="url(#p59c619d970)" d="M 816.206281 474.426772 
L 816.206281 377.785438 
" style="fill:none;stroke:#ff0000;stroke-width:1.5;"/>
    <path clip-path="url(#p59c619d970)" d="M 842.248089 392.823807 
L 842.248089 305.293876 
" style="fill:none;stroke:#ff0000;stroke-width:1.5;"/>
    <path clip-path="url(#p59c619d970)" d="M 870.460049 678.3912 
L 870.460049 514.798448 
" style="fill:none;stroke:#ff0000;stroke-width:1.5;"/>
    <path clip-path="url(#p59c619d970)" d="M 924.713816 594.752279 
L 924.713816 494.939727 
" style="fill:none;stroke:#ff0000;stroke-width:1.5;"/>
   </g>
   <g id="line2d_68">
    <g clip-path="url(#p59c619d970)">
     <use style="fill:#ff0000;stroke:#ff0000;" x="978.967584" xlink:href="#m6b2ed63387" y="327.279362"/>
     <use style="fill:#ff0000;stroke:#ff0000;" x="783.65402" xlink:href="#m6b2ed63387" y="366.46424"/>
     <use style="fill:#ff0000;stroke:#ff0000;" x="796.674925" xlink:href="#m6b2ed63387" y="438.103924"/>
     <use style="fill:#ff0000;stroke:#ff0000;" x="1217.684161" xlink:href="#m6b2ed63387" y="147.354434"/>
     <use style="fill:#ff0000;stroke:#ff0000;" x="816.206281" xlink:href="#m6b2ed63387" y="426.106105"/>
     <use style="fill:#ff0000;stroke:#ff0000;" x="842.248089" xlink:href="#m6b2ed63387" y="349.058842"/>
     <use style="fill:#ff0000;stroke:#ff0000;" x="870.460049" xlink:href="#m6b2ed63387" y="596.594824"/>
     <use style="fill:#ff0000;stroke:#ff0000;" x="924.713816" xlink:href="#m6b2ed63387" y="544.846003"/>
    </g>
   </g>
   <g id="patch_8">
    <path d="M 757.178182 706.1616 
L 757.178182 95.2128 
" style="fill:none;stroke:#000000;stroke-linecap:square;stroke-linejoin:miter;stroke-width:0.8;"/>
   </g>
   <g id="patch_9">
    <path d="M 1244.16 706.1616 
L 1244.16 95.2128 
" style="fill:none;stroke:#000000;stroke-linecap:square;stroke-linejoin:miter;stroke-width:0.8;"/>
   </g>
   <g id="patch_10">
    <path d="M 757.178182 706.1616 
L 1244.16 706.1616 
" style="fill:none;stroke:#000000;stroke-linecap:square;stroke-linejoin:miter;stroke-width:0.8;"/>
   </g>
   <g id="patch_11">
    <path d="M 757.178182 95.2128 
L 1244.16 95.2128 
" style="fill:none;stroke:#000000;stroke-linecap:square;stroke-linejoin:miter;stroke-width:0.8;"/>
   </g>
  </g>
 </g>
 <defs>
  <clipPath id="pcba5afc950">
   <rect height="610.9488" width="486.981818" x="172.8" y="95.2128"/>
  </clipPath>
  <clipPath id="p59c619d970">
   <rect height="610.9488" width="486.981818" x="757.178182" y="95.2128"/>
  </clipPath>
 </defs>
</svg>
